<?xml version="1.0" encoding="UTF-8"?>
<svg version="1.1" xmlns="http://www.w3.org/2000/svg" width="200" height="200">
<path d="M0 0 C1.98684692 -0.36076355 1.98684692 -0.36076355 4.44970703 -0.34057617 C5.37051056 -0.34034958 6.29131409 -0.34012299 7.24002075 -0.33988953 C8.73382767 -0.31666374 8.73382767 -0.31666374 10.2578125 -0.29296875 C11.27600067 -0.28872391 12.29418884 -0.28447906 13.3432312 -0.28010559 C16.60408673 -0.26327579 19.86433041 -0.22561546 23.125 -0.1875 C25.33202234 -0.17245874 27.53905434 -0.15876937 29.74609375 -0.14648438 C35.16427223 -0.1133583 40.58209242 -0.06311653 46 0 C46.22204102 0.82201904 46.44408203 1.64403809 46.67285156 2.4909668 C48.53560073 9.18799568 48.53560073 9.18799568 52.734375 14.51953125 C59.19613946 17.29005461 63.13193224 18.68886912 70 17 C71.57657556 16.79102852 73.15637911 16.60525129 74.73828125 16.44140625 C75.53919189 16.35705322 76.34010254 16.2727002 77.1652832 16.18579102 C77.77073975 16.12447998 78.37619629 16.06316895 79 16 C81.39712681 19.66582253 83.79246454 23.33281083 86.1875 27 C86.86103516 28.02996094 87.53457031 29.05992188 88.22851562 30.12109375 C90.15827462 33.07691973 92.07978347 36.03796934 94 39 C94.52932129 39.80469727 95.05864258 40.60939453 95.60400391 41.43847656 C99 46.68759645 99 46.68759645 99 49.75 C97.44008387 53.25981129 96.05954931 55.47539748 92.54931641 57.21337891 C91.57655762 57.54772949 90.60379883 57.88208008 89.6015625 58.2265625 C88.49643311 58.61368408 87.39130371 59.00080566 86.25268555 59.3996582 C84.4569812 60.00620239 84.4569812 60.00620239 82.625 60.625 C80.73334912 61.28140766 78.84169843 61.93781583 76.95005798 62.59425354 C74.97081718 63.27826667 72.98945711 63.95576436 71.00732422 64.63134766 C66.43719695 66.18944977 61.87633472 67.77383769 57.31716919 69.36369324 C54.20164502 70.44817931 51.08159103 71.51458846 47.95214844 72.55834961 C40.72417387 74.94403756 40.72417387 74.94403756 33.79296875 78.0546875 C25.42965796 82.04996054 19.61041789 80.61677818 11.1875 77.75 C7.56836474 76.43138397 3.97145156 75.06124385 0.37988281 73.66992188 C-7.5415649 70.61942648 -15.57095542 67.85510901 -23.57113647 65.01965332 C-26.41108792 64.00939559 -29.24771234 62.9903428 -32.08325195 61.96777344 C-33.4197731 61.48639923 -33.4197731 61.48639923 -34.78329468 60.99530029 C-36.46702165 60.38838261 -38.15025643 59.78009711 -39.83291626 59.17022705 C-40.58728973 58.89877869 -41.34166321 58.62733032 -42.11889648 58.34765625 C-43.10260475 57.99199585 -43.10260475 57.99199585 -44.10618591 57.62915039 C-46.01160172 56.95124564 -46.01160172 56.95124564 -48.09803772 56.59155273 C-51.43420916 55.55392893 -52.43893654 52.94867543 -54 50 C-53.67312654 46.02590685 -51.21004816 42.92332657 -49.0625 39.6875 C-48.66788574 39.08591064 -48.27327148 38.48432129 -47.86669922 37.86450195 C-47.02270781 36.5799874 -46.17627604 35.29707357 -45.32763672 34.015625 C-43.96504629 31.94693309 -42.6238468 29.86547341 -41.28515625 27.78125 C-40.39894951 26.41633409 -39.51224361 25.05174213 -38.625 23.6875 C-38.20871338 23.03547607 -37.79242676 22.38345215 -37.36352539 21.71166992 C-34.34158028 17.11386009 -34.34158028 17.11386009 -31 16 C-28.82617733 16.37755867 -26.66014904 16.80076546 -24.5 17.25 C-17.82461812 18.31639918 -13.96598015 17.40425529 -8.109375 14.1640625 C-6 13 -6 13 -4 13 C-3.87882812 12.31292969 -3.75765625 11.62585937 -3.6328125 10.91796875 C-3.46523437 10.01691406 -3.29765625 9.11585937 -3.125 8.1875 C-2.96257812 7.29417969 -2.80015625 6.40085937 -2.6328125 5.48046875 C-2 3 -2 3 0 0 Z " fill="#FF3304" transform="translate(78,15)"/>
<path d="M0 0 C3.60877166 1.19424093 7.21661732 2.39124527 10.82391357 3.5899353 C12.14971231 4.03000315 13.47576257 4.46931391 14.80206299 4.90786743 C23.06843146 7.64151818 31.30327762 10.44574383 39.50390625 13.37109375 C41.85925117 14.20422902 44.21501698 15.03616384 46.57089233 15.86779785 C48.09848977 16.41125115 49.62394993 16.9607526 51.14712524 17.51647949 C53.29869258 18.30101553 55.45680611 19.06435302 57.6171875 19.82421875 C58.85065918 20.26854248 60.08413086 20.71286621 61.35498047 21.1706543 C68.4676483 22.7889887 74.58136074 20.71121236 81.25 18.33984375 C82.0182309 18.07399475 82.78646179 17.80814575 83.57797241 17.53424072 C86.05449677 16.67570729 88.52717145 15.80661392 91 14.9375 C92.70362513 14.34520702 94.40756607 13.75382167 96.11181641 13.16333008 C98.66438863 12.27889139 101.21679683 11.39402291 103.76821899 10.50627136 C110.95131794 8.00793016 118.15572161 5.57950406 125.375 3.1875 C126.37144531 2.8567749 127.36789063 2.5260498 128.39453125 2.18530273 C130.59588773 1.45544443 132.79764477 0.72683771 135 0 C138.29462539 6.58925079 138.83384765 18.4796382 137.41796875 25.69921875 C136.90939407 28.15688823 136.90939407 28.15688823 136.92578125 31.33203125 C136.57967092 35.55277931 136.03990811 38.26593091 134 42 C129.12748729 45.83219409 123.14629671 47.8815533 117.40136719 50.05371094 C115.23071049 50.90908562 113.17779818 51.85346033 111.1015625 52.9140625 C109.99554688 53.47867188 108.88953125 54.04328125 107.75 54.625 C106.31914062 55.35589844 106.31914062 55.35589844 104.859375 56.1015625 C99.18057886 57.88588369 94.17786494 55.8618 89 53.3984375 C73.53434885 46.39113338 73.53434885 46.39113338 57.11328125 48.42041016 C53.38265532 50.08029486 49.75983356 51.86865852 46.17675781 53.82617188 C41.10290776 56.56227226 37.6012651 57.54237735 32 56 C28.69035572 54.7074937 25.47148379 53.24712733 22.25 51.75 C21.36199707 51.34031982 20.47399414 50.93063965 19.55908203 50.50854492 C17.81492169 49.70144264 16.07218847 48.89124754 14.33105469 48.07763672 C12.4133678 47.19109819 10.47832078 46.34220864 8.5390625 45.50390625 C7.65992188 45.11074219 6.78078125 44.71757813 5.875 44.3125 C5.15054688 43.99925781 4.42609375 43.68601563 3.6796875 43.36328125 C1.15593626 41.31493431 0.82678256 39.09950771 0 36 C-0.31582031 34.96746094 -0.63164063 33.93492188 -0.95703125 32.87109375 C-3.80278309 21.4491035 -2.1824834 11.41720906 0 0 Z M16 18 C14.59942318 23.00781782 13.62665403 26.73477199 15.125 31.8125 C18.56412965 37.65902041 20.95100447 40.71610508 27.55859375 42.62109375 C31.69386582 43.26288798 35.17199209 42.65334194 39 41 C41.91790525 38.7495803 41.91790525 38.7495803 44 36 C44.598125 35.29875 45.19625 34.5975 45.8125 33.875 C47.26752604 31.94749215 47.26752604 31.94749215 47 29 C31.80782761 22.58626573 31.80782761 22.58626573 16 18 Z M112.4921875 19.64453125 C111.58726562 19.99193359 110.68234375 20.33933594 109.75 20.69726562 C108.80125 21.06529297 107.8525 21.43332031 106.875 21.8125 C105.01829423 22.52751274 103.16152431 23.24235889 101.3046875 23.95703125 C100.41104492 24.3020166 99.51740234 24.64700195 98.59667969 25.00244141 C95.07231444 26.35638616 91.53747619 27.68072947 88 29 C89.60887617 35.2892432 92.67011737 38.44674491 98 42 C104.05245655 43.33359212 108.58191867 43.22532464 114 40 C118.18892554 36.20345483 120.84003485 32.19952074 121.25 26.5625 C121.01532858 23.21843233 120.44948124 20.98955505 119 18 C116.5043686 18 114.8238659 18.74404155 112.4921875 19.64453125 Z " fill="#FF4B0D" transform="translate(33,78)"/>
<path d="M0 0 C2.80013087 1.56279234 5.78725436 2.61089928 8.78125 3.74414062 C13.6481442 5.72792902 13.6481442 5.72792902 14.78125 7.99414062 C14.72764241 10.62595573 14.6113805 13.22092826 14.44140625 15.84570312 C14.39559921 16.6197348 14.34979218 17.39376648 14.30259705 18.19125366 C14.15484796 20.66756142 13.99938825 23.14331739 13.84375 25.61914062 C13.74233101 27.29619334 13.64141318 28.97327645 13.54101562 30.65039062 C13.29357799 34.76534934 13.03922331 38.87982951 12.78125 42.99414062 C-12.75860223 55.67998031 -12.75860223 55.67998031 -21.28491211 52.87426758 C-24.41999691 51.44742997 -27.27906462 49.79921059 -30.21875 47.99414062 C-32.35358434 47.03185725 -34.49853261 46.09145522 -36.65625 45.18164062 C-41.05852901 43.15436162 -41.05852901 43.15436162 -42.21875 41.99414062 C-42.46538878 39.34201248 -42.64735968 36.71520209 -42.78125 34.05664062 C-42.8237085 33.26209473 -42.86616699 32.46754883 -42.90991211 31.64892578 C-43.32717638 23.09710713 -43.30980648 14.55345001 -43.21875 5.99414062 C-13.91383946 -8.08142184 -13.91383946 -8.08142184 0 0 Z " fill="#FF5707" transform="translate(115.21875,134.005859375)"/>
<path d="M0 0 C7.50797024 4.83846971 7.50797024 4.83846971 9 7 C8.68399079 9.95078728 7.92289478 12.63308991 7.09130859 15.47485352 C6.87684082 16.21533936 6.66237305 16.9558252 6.44140625 17.71875 C6.20437988 18.53472656 5.96735352 19.35070312 5.72314453 20.19140625 C4.88946354 23.42930837 4.30717433 26.67832034 3.71484375 29.96875 C0.04095042 48.27441705 0.04095042 48.27441705 -5.27880859 53.04248047 C-10.59551894 56.19706858 -16.29489777 57.82516238 -22.26806641 59.28369141 C-26.26439142 60.3315214 -29.96632273 61.92531831 -33.75 63.5625 C-39.74796748 66 -39.74796748 66 -42 66 C-42.11663721 62.0861736 -42.09132018 58.19160092 -42.00244141 54.27734375 C-41.99981761 51.82986489 -42.14934575 49.41173547 -42.29296875 46.96875 C-42.41532443 41.73153388 -42.46009055 36.74007112 -40 32 C-34.86465048 27.32845525 -28.0954455 25.18069872 -21.63574219 22.94335938 C-18.05443811 21.66157363 -14.72764332 20.0480365 -11.3125 18.375 C-6.25414365 16 -6.25414365 16 -4 16 C-3.896875 15.030625 -3.79375 14.06125 -3.6875 13.0625 C-3.05370121 8.51406161 -1.55244173 4.30582896 0 0 Z " fill="#FF690C" transform="translate(176,108)"/>
<path d="M0 0 C0.50806447 1.72681437 1.00610467 3.45657979 1.5 5.1875 C1.7784375 6.15042969 2.056875 7.11335938 2.34375 8.10546875 C2.96677608 10.85345876 3.12302812 13.19598416 3 16 C4.010625 16.26554687 5.02125 16.53109375 6.0625 16.8046875 C10.57214641 18.09736225 14.74510848 19.97912305 18.92651367 22.10400391 C22.34945185 23.83204846 25.49910254 25.19223523 29.23828125 26.078125 C33.88266566 27.41919031 37.44530453 28.69071634 40 33 C42.51476259 43.72790128 42.2056019 55.0394823 42 66 C35.11732809 64.90468768 28.69901303 61.95674895 22.26123047 59.38256836 C20.67155972 58.75297807 19.07707331 58.13541266 17.47802734 57.5300293 C15.1581649 56.65083055 12.85631549 55.73431978 10.5546875 54.80859375 C9.84214813 54.54678818 9.12960876 54.2849826 8.39547729 54.01524353 C5.55308867 52.83241224 3.56389041 51.93899166 1.94750977 49.24739075 C1.15075307 47.18386547 0.55114687 45.14152745 0 43 C-0.39026367 41.75710205 -0.78052734 40.5142041 -1.18261719 39.23364258 C-2.17209898 35.82443986 -3.15753959 32.41436354 -4.12646484 28.99926758 C-4.75233167 26.80432271 -5.39366349 24.61424943 -6.03515625 22.42382812 C-6.43585735 21.01850297 -6.83562998 19.61291267 -7.234375 18.20703125 C-7.59756836 16.9435083 -7.96076172 15.67998535 -8.33496094 14.37817383 C-8.98586261 11.07181316 -9.01938412 9.17540126 -8 6 C-6.66015625 4.19921875 -6.66015625 4.19921875 -5.0625 2.6875 C-4.27552734 1.91986328 -4.27552734 1.91986328 -3.47265625 1.13671875 C-2 0 -2 0 0 0 Z " fill="#FF430B" transform="translate(26,108)"/>
</svg>
